# xmcd
#
# Track frame offsets: 
#        150
#        15596
#        41669
#        60762
#        84515
#        107314
#        135046
#        155979
#        174913
#        193329
#        215586
#        238532
#        264620
#        279840
#        298181
#        320197
#        343729
#
# Disc length: 4789 seconds
#
# Revision: 0
# Processed by: cddbd v1.5.2PL0 Copyright (c) Steve Scherf et al.
# Submitted via: ExactAudioCopy v0.95a5
#
DISCID=f112b311
DTITLE=Various Artist - Akella Presents - Modern Electric Blues - vol.24  CD2
DYEAR=2011
DGENRE=Blues
TTITLE0=She's On A Roll - BLUESBALL
TTITLE1=The Visit - KAL DAVID
TTITLE2=Could Get Dangerous - DEVON ALLMANS HONEYTRIBE
TTITLE3=Yours For a Song - DAVE HOLE
TTITLE4=My Next Ex-Wife - WILD T and The SPIRIT
TTITLE5=World Of Trouble - JOHN CAMPBELL
TTITLE6=Monkey Business - JOHN LYONS BAND
TTITLE7=Black Eyed Voodoo Child - COYOTE KINGS
TTITLE8=Who Will Be The Fool - SCOTT ELLISON
TTITLE9=In The Morning - EDDIE TURNER
TTITLE10=Chains Of Love - TEXAS BLUES RUNNERS
TTITLE11=Feel So Much Better - RICK FOWLER
TTITLE12=Two Lane Road - LEW JETTON and 61 SOUTH
TTITLE13=Voodoo Chile - SIR OLIVER MALLY
TTITLE14=Too Much Woman - DAVID ROTUNDO BAND
TTITLE15=Song For My Guitar - WALTER TROUT
TTITLE16=I'm Coming For You - The HITMAN BLUES BAND
EXTD=
EXTT0=
EXTT1=
EXTT2=
EXTT3=
EXTT4=
EXTT5=
EXTT6=
EXTT7=
EXTT8=
EXTT9=
EXTT10=
EXTT11=
EXTT12=
EXTT13=
EXTT14=
EXTT15=
EXTT16=
PLAYORDER=
